<?xml version="1.0" encoding="utf-8"?>
<!-- Generator: Adobe Illustrator 24.3.0, SVG Export Plug-In . SVG Version: 6.00 Build 0)  -->
<svg version="1.1" id="Layer_1" xmlns="http://www.w3.org/2000/svg" xmlns:xlink="http://www.w3.org/1999/xlink" x="0px" y="0px"
	 viewBox="0 0 240 350.8" style="enable-background:new 0 0 240 350.8;" xml:space="preserve">
<style type="text/css">
	.st0{fill:#1BCF85;stroke:#1BCF85;stroke-width:5;stroke-miterlimit:10;}
	.st1{fill:#2E28FC;stroke:#FFFFFF;stroke-miterlimit:10;}
	.st2{fill:none;stroke:#FFFFFF;stroke-width:3;stroke-miterlimit:10;}
	.st3{fill:#1BCF85;}
</style>
<g>
	<g>
		<g>
			<g>
				<g>
					<path class="st0" d="M213.1,136.1c-5.1-12-12.4-22.8-21.6-32.1c-9.3-9.3-20.1-16.6-32.1-21.6c-12.5-5.3-25.7-7.9-39.3-7.9
						c-13.6,0-26.9,2.7-39.3,7.9c-12,5.1-22.8,12.4-32.1,21.6c-9.3,9.3-16.6,20.1-21.6,32.1c-3,7-5.1,14.2-6.4,21.6h16.9
						c8.2-38.1,42.1-66.8,82.6-66.8c46.6,0,84.5,37.9,84.5,84.5c0,44.7-34.8,81.3-78.7,84.3v16.5c11.6-0.6,22.9-3.2,33.6-7.8
						c12-5.1,22.8-12.4,32.1-21.6c9.3-9.3,16.6-20.1,21.6-32.1c5.3-12.5,7.9-25.7,7.9-39.3C221,161.8,218.3,148.5,213.1,136.1z"/>
				</g>
			</g>
			<g>
				<path class="st1" d="M35.5,175.4c0-4.5,0.4-8.9,1-13.2H19.9c-0.6,4.4-0.9,8.8-0.9,13.2c0,13.6,2.7,26.9,7.9,39.3
					c5.1,12,12.4,22.8,21.6,32.1c9.3,9.3,20.1,16.6,32.1,21.6c12.3,5.2,25.4,7.9,38.8,7.9v-16.5C73.1,259.6,35.5,221.8,35.5,175.4z"
					/>
			</g>
		</g>
		<line class="st2" x1="19.9" y1="162.2" x2="36.5" y2="162.2"/>
		<line class="st2" x1="119.5" y1="259.9" x2="119.5" y2="276.4"/>
	</g>
	<g>
		<path class="st3" d="M121.2,95.9c-38.6-0.6-71,26.5-78.9,62.6c-0.1,0.6,0.3,1.2,1,1.2l0,0c0.5,0,0.9-0.3,1-0.8
			c7.7-35.3,39.4-61.6,77-61c41,0.7,74.8,33.8,76.1,74.8c1.4,42.7-31.9,78.1-73.8,80c-0.5,0-1,0.5-1,1l0,0c0,0.6,0.5,1,1,1
			c43-2,77.2-38.3,75.7-82.1C198,130.5,163.4,96.5,121.2,95.9z"/>
	</g>
</g>
</svg>
